<?xml version="1.0" encoding="UTF-8" standalone="no"?>
<!-- Created with Inkscape (http://www.inkscape.org/) -->
<svg xmlns:rdf="http://www.w3.org/1999/02/22-rdf-syntax-ns#" xmlns="http://www.w3.org/2000/svg" xmlns:cc="http://creativecommons.org/ns#" xmlns:dc="http://purl.org/dc/elements/1.1/" height="512" width="512" version="1.1" viewBox="0 0 511.99999 511.99999">
 <metadata xmlns="http://www.w3.org/2000/svg">
  <rdf:RDF xmlns:rdf="http://www.w3.org/1999/02/22-rdf-syntax-ns#">
   <cc:Work xmlns:cc="http://creativecommons.org/ns#" rdf:about="">
    <dc:format xmlns:dc="http://purl.org/dc/elements/1.1/">image/svg+xml</dc:format>
    <dc:type xmlns:dc="http://purl.org/dc/elements/1.1/" rdf:resource="http://purl.org/dc/dcmitype/StillImage"/>
    <dc:title xmlns:dc="http://purl.org/dc/elements/1.1/"/>
   </cc:Work>
  </rdf:RDF>
 </metadata>
<g>
  <g transform="translate(-.13295)">
    <path d="m236.63 322.78h6.1262v1.2188h-8.125v-1.2188l7.2475-6.0775v-.0163q.4875-.53625.4875-1.2188 0-.4225-.195-.79625-.17875-.37375-.50375-.65t-.76375-.43875-.92625-.1625-.91.1625-.7475.43875q-.30875.27625-.50375.65t-.24375.79625q-.0162.1625.0488.4225.0812.24375.14625.39l-1.2675.0813q-.0813-.27625-.11375-.43875-.0325-.17875-.0325-.455 0-.6825.27625-1.2675.2925-.60125.78-1.04.50375-.43875 1.1538-.69875.66625-.26 1.4138-.26.7475 0 1.3975.26.66625.26 1.1538.69875.4875.43875.76375 1.04.2925.585.2925 1.2675 0 .27625-.0325.52t-.13.4875q-.0813.24375-.24375.52-.1625.26-.43875.585l-6.11 5.2z" stroke="#000"/>
   </g>
<g transform="translate(0 -540.36)">
    <path d="m250.34 864.36q-.76375 0-1.43-.455-.65-.455-1.1375-1.2512-.4875-.79625-.78-1.8688-.27625-1.0725-.27625-2.3238 0-1.235.27625-2.3075.2925-1.0725.78-1.8688.4875-.79625 1.1375-1.2512.66625-.455 1.43-.455t1.4138.455q.66625.455 1.1538 1.2512.4875.79625.76375 1.8688.2925 1.0725.2925 2.3075 0 1.2512-.2925 2.3238-.27625 1.0725-.76375 1.8688-.4875.79625-1.1538 1.2512-.65.455-1.4138.455zm0-10.562q-.4225 0-.845.325t-.7475.91q-.39.6825-.60125 1.5762-.21125.8775-.21125 1.8525 0 .99125.21125 1.885.21125.8775.60125 1.56.325.585.7475.91t.845.325.845-.325.7475-.91q.39-.6825.585-1.56.21125-.89375.21125-1.885 0-.975-.21125-1.8525-.195-.89375-.585-1.5762-.325-.585-.7475-.91t-.845-.325z" stroke="#000"/>
   </g><g transform="translate(0 -540.36)">
    <path d="m259.22 852.65h1.2188v1.2188 10.498h-1.2188v-10.498h-1.2188v-1.2188h1.2188z" stroke="#000"/>
   </g><g transform="matrix(.95704 0 0 .95704 13.82 13.472)">
   <path d="m273.17 313.43h-7.14l6.2125 5.285q.595.6825.7525 1.19.175.49.175 1.085 0 .7175-.315 1.365-.2975.63-.84 1.1025-.525.4725-1.2425.7525-.7.28-1.505.28t-1.5225-.28q-.7-.28-1.2425-.7525-.525-.4725-.84-1.1025-.2975-.6475-.2975-1.365 0-.2975.035-.49t.1225-.49l1.365.0875q-.07.175-.1575.4375-.07.2625-.035.455.0525.455.245.8575.21.385.5425.6825.35.2975.805.4725t.98.175.9975-.175.8225-.4725.5425-.6825q.21-.4025.21-.8575 0-.7525-.525-1.33l-7.315-6.23v-1.3125h9.17v1.3125z" stroke="#000"/>
  </g></g>

 
 <g>
  <g transform="matrix(.95807 0 0 .94464 2.5415 -500.63)">
   <path d="m81.434 784.24h-22.194l16.879 14.66h.05841v4.4388h-22.077v14.309h27.275v4.4972h-27.275-4.4388v-23.245h4.4388 14.952l-16.821-14.66v-4.4388h29.203v4.4388z" stroke-width="0"/>
  </g>
  <g transform="matrix(.89614 0 0 .88358 12.512 -450.78)">
   <path d="m133.89 777.26-15.358 22.666 15.358 22.604h-5.6356l-12.51-18.455-12.51 18.455h-5.6356l15.297-22.604-15.297-22.666h5.6356l12.51 18.455 12.51-18.455h5.6356z" stroke-width="0"/>
  </g><g transform="matrix(.96072 0 0 .94726 8.5306 -502.78)">
   <path d="m184.01 791.66q0 2.453-1.0513 4.614-1.0513 2.1026-2.8619 3.738-1.8106 1.577-4.2636 2.5114-2.3946.93449-5.1981.93449h-17.522v18.69h-4.4388v-23.129h4.4388 14.952l-16.762-14.66.11681-.0584h-.11681v-4.3804h19.391q2.7451 0 5.1397.93449 2.453.93449 4.2636 2.5698 1.8106 1.577 2.8619 3.738 1.0513 2.1026 1.0513 4.4972zm-9.6369 6.7166q2.3362-.87608 3.7964-2.6866 1.4601-1.8106 1.4601-4.03 0-1.4601-.70087-2.8035-.70086-1.3433-1.9274-2.3362-1.1681-.99289-2.8035-1.577-1.6354-.58406-3.5043-.64246h-12.44l16.12 14.076z" stroke-width="0"/>
  </g><g transform="matrix(.96072 0 0 .94726 11.223 -502.78)">
   <path d="m232.14 817.76v4.3804h-27.334-4.4388v-4.3804-37.847h4.4388v37.847h27.334z" stroke-width="0"/>
  </g><g transform="matrix(.95807 0 0 .94464 10.955 -500.63)">
   <path d="m256.42 779.8v42.344h-4.4388v-42.344h4.4388z" stroke-width="0"/>
  </g><g transform="matrix(.90314 0 0 .89049 26.319 -456.11)">
   <path d="m297.75 822.14q-4.2131 0-7.9925-1.7348-3.7175-1.7968-6.5056-4.8327t-4.399-7.1251-1.6109-8.736 1.6109-8.736 4.399-7.1251q2.7881-3.0979 6.5056-4.8327 3.7794-1.7968 7.9925-1.7968 4.461 0 8.4882 2.0446 4.0892 1.9826 7.0012 5.7001l-3.6555 2.912q-2.2305-2.85-5.3284-4.399-3.0979-1.6109-6.5056-1.6109-3.2838 0-6.1958 1.425-2.85 1.3631-5.0186 3.7794-2.1066 2.4164-3.3457 5.7001-1.2392 3.2218-1.2392 6.9393 0 3.6555 1.2392 6.9392 1.2392 3.2218 3.3457 5.6382 2.1685 2.4164 5.0186 3.8414 2.912 1.3631 6.1958 1.3631t6.1958-1.3631 5.1425-3.9653l3.5316 3.0359q-2.974 3.4077-6.8153 5.2044-3.7794 1.7348-8.0545 1.7348z" stroke-width="0"/>
  </g><g transform="matrix(.95807 0 0 .94464 17.191 -500.63)">
   <path d="m343.96 822.14q-4.03 0-7.5343-1.6354-3.5043-1.6938-6.1326-4.5556-2.6282-2.8619-4.1468-6.7166-1.5186-3.8548-1.5186-8.2352t1.5186-8.2352q1.5185-3.8548 4.1468-6.7166 2.6283-2.9203 6.1326-4.5556 3.5043-1.6938 7.5343-1.6938 3.9716 0 7.4759 1.6938 3.5627 1.6354 6.191 4.5556 2.6282 2.8619 4.1468 6.7166 1.5186 3.8548 1.5186 8.2352t-1.5186 8.2352q-1.5185 3.8548-4.1468 6.7166-2.6283 2.8619-6.191 4.5556-3.5043 1.6354-7.4759 1.6354zm0-37.964q-3.0955 0-5.8406 1.3433-2.6866 1.2849-4.7308 3.5627t-3.2123 5.3733q-1.1681 3.0371-1.1681 6.5414 0 3.4459 1.1681 6.5414 1.1681 3.0371 3.2123 5.3149t4.7308 3.6211q2.7451 1.2849 5.8406 1.2849t5.7822-1.2849q2.7451-1.3433 4.7893-3.6211t3.2123-5.3149q1.1681-3.0955 1.1681-6.5414 0-3.5043-1.1681-6.5414-1.1681-3.0955-3.2123-5.3733t-4.7893-3.5627q-2.6866-1.3433-5.7822-1.3433z" stroke-width="0"/>
  </g><g transform="matrix(.96072 0 0 -.94726 20.501 -502.78)">
   <path d="m409.23-815.66q2.161 2.9787 3.2707 6.7166 1.1097 3.738 1.1097 7.9432 0 4.1468-1.1097 7.9432-1.1097 3.738-3.2707 6.7166-2.2194 3.1539-5.1397 4.7893t-6.191 1.6354h-15.77-4.3804v-42.227h4.3804 15.77q3.2707 0 6.191 1.6938 2.9203 1.6354 5.1397 4.7893zm-3.5627 26.75q1.6938-2.453 2.6282-5.5485.93449-3.0955.93449-6.5414 0-3.5043-.93449-6.5414-.93449-3.0955-2.6282-5.5485-1.577-2.2194-3.6212-3.3875-1.9858-1.2265-4.1468-1.2265h-15.77v33.408h15.77q2.161 0 4.1468-1.1681 2.0442-1.2265 3.6212-3.4459z" stroke-width="0"/>
  </g><g transform="matrix(.95807 0 0 .94464 22.376 -500.63)">
   <path d="m460.58 784.24h-22.194l16.879 14.66h.0584v4.4388h-22.077v14.309h27.275v4.4972h-27.275-4.4388v-23.245h4.4388 14.952l-16.821-14.66v-4.4388h29.203v4.4388z" stroke-width="0"/>
  </g>
 </g>
 <g>
  <path d="m288.53 161.56-.45508.45508-.70703.70703-1.8066 1.8066a33 33 0 0 1 -15.051 15.051l-.64258.64258-1.793 1.793-.70703.70703-3.5859 3.5859-.70703.70703-1.793 1.793-.70703.70703-.70703.70703-1.793 1.793-.70703.70703-3.5859 3.5859-.70703.70703-1.793 1.793-.70703.70703-.70703.70703-1.793 1.793-.70703.70703-3.5859 3.5859-.70703.70703-1.793 1.793-.70703.70703-.70703.70703-.77539.77539h2.8281l.0684-.0684.70704-.70703 1.793-1.793.70704-.70703 3.5859-3.5859.70703-.70703 1.793-1.793.70703-.70703.70704-.70703 1.793-1.793.70704-.70703 3.5859-3.5859.70703-.70703 1.793-1.793.70703-.70703.70704-.70703 1.793-1.793.70704-.70703 3.5859-3.5859.70703-.70703 1.793-1.793.70703-.70703.70704-.70703 1.793-1.793.70704-.70703 3.5859-3.5859.70703-.70703 1.793-1.793.70703-.70703.70704-.70703 1.793-1.793.70704-.70703 3.5859-3.5859.70703-.70703 1.0977-1.0977a100 100 0 0 0 -2.0566 -.77148zm-68.582 1.4102a100 100 0 0 0 -4.6523 1.8242l-1.5137 1.5137-.70703.70703-1.793 1.793-.70703.70703-.70703.70703-1.793 1.793-.70703.70703-3.5859 3.5859-.70703.70703-1.793 1.793-.70703.70703-.70703.70703-1.793 1.793-.70703.70703-3.5859 3.5859-.70703.70703-1.793 1.793-.70703.70703-.70703.70703-1.793 1.793-.70703.70703-3.5859 3.5859-.70703.70703-1.793 1.793-.70703.70703-.70703.70703-1.793 1.793-.70703.70703-3.5859 3.5859-.70703.70703-1.793 1.793-.70703.70703-.70703.70703-.77539.77539h2.8281l.0684-.0684.70704-.70703 1.793-1.793.70704-.70703 3.5859-3.5859.70703-.70703 1.793-1.793.70703-.70703.70704-.70703 1.793-1.793.70704-.70703 3.5859-3.5859.70703-.70703 1.793-1.793.70703-.70703.70704-.70703 1.793-1.793.70704-.70703 4.293-4.293 1.793-1.793.70703-.70703.70704-.70703 1.793-1.793.70704-.70703 3.5859-3.5859.70703-.70703 1.793-1.793.70703-.70703.70704-.70703 1.793-1.793.70704-.70703 3.5859-3.5859.70703-.70703.45899-.45898zm6.2129.95898-2.3789 2.3789-.70703.70703-1.793 1.793-.70703.70703-.70703.70703-1.793 1.793-.70703.70703-3.5859 3.5859-.70703.70703-1.793 1.793-.70703.70703-.70703.70703-1.793 1.793-.70703.70703-3.5859 3.5859-.70703.70703-1.793 1.793-.70703.70703-.70703.70703-1.793 1.793-.70703.70703-3.5859 3.5859-.70703.70703-1.793 1.793-.70703.70703-.70703.70703-1.793 1.793-.70703.70703-3.5859 3.5859-.70703.70703-1.793 1.793-.70703.70703-.70703.70703-.77539.77539h2.8281l.0684-.0684.70704-.70703 1.793-1.793.70704-.70703 3.5859-3.5859.70703-.70703 1.793-1.793.70703-.70703.70704-.70703 1.793-1.793.70704-.70703 3.5859-3.5859.70703-.70703 1.793-1.793.70703-.70703.70704-.70703 1.793-1.793.70704-.70703 4.293-4.293 1.793-1.793.70703-.70703.70704-.70703 1.793-1.793.70704-.70703 3.5859-3.5859.70703-.70703 1.793-1.793.70703-.70703.70704-.70703 1.793-1.793.70704-.70703 1.9141-1.9141a33 33 0 0 1 -.94922 -1.8789zm69.598.40234-1.9766 1.9766-.70703.70703-1.793 1.793-.70703.70703-.70703.70703-1.793 1.793-.70703.70703-3.5859 3.5859-.70703.70703-1.793 1.793-.70703.70703-.70703.70703-1.793 1.793-.70703.70703-3.5859 3.5859-.70703.70703-1.793 1.793-.70703.70703-.70703.70703-1.793 1.793-.70703.70703-3.5859 3.5859-.70703.70703-1.793 1.793-.70703.70703-.70703.70703-1.793 1.793-.70703.70703-3.5859 3.5859-.70703.70703-1.793 1.793-.70703.70703-.70703.70703-.77539.77539h2.8281l.0684-.0684.70704-.70703 1.793-1.793.70704-.70703 3.5859-3.5859.70703-.70703 1.793-1.793.70703-.70703.70704-.70703 1.793-1.793.70704-.70703 3.5859-3.5859.70703-.70703 1.793-1.793.70703-.70703.70704-.70703 1.793-1.793.70704-.70703 3.5859-3.5859.70703-.70703 1.793-1.793.70703-.70703.70704-.70703 1.793-1.793.70704-.70703 4.293-4.293 1.793-1.793.70703-.70703.70704-.70703 1.793-1.793.70704-.70703 2.4629-2.4629a100 100 0 0 0 -1.9004 -.92774zm6.7246 3.2754-1.2012 1.2012-.70703.70703-.70703.70703-1.793 1.793-.70703.70703-3.5859 3.5859-.70703.70703-1.793 1.793-.70703.70703-.70703.70703-1.793 1.793-.70703.70703-3.5859 3.5859-.70703.70703-1.793 1.793-.70703.70703-.70703.70703-1.793 1.793-.70703.70703-3.5859 3.5859-.70703.70703-1.793 1.793-.70703.70703-.70703.70703-1.793 1.793-.70703.70703-3.5859 3.5859-.70703.70703-1.793 1.793-.70703.70703-.70703.70703-.77539.77539h2.8281l.0684-.0684.70704-.70703 1.793-1.793.70704-.70703 3.5859-3.5859.70703-.70703 1.793-1.793.70703-.70703.70704-.70703 1.793-1.793.70704-.70703 3.5859-3.5859.70703-.70703 1.793-1.793.70703-.70703.70704-.70703 1.793-1.793.70704-.70703 3.5859-3.5859.70703-.70703 1.793-1.793.70703-.70703.70704-.70703 1.793-1.793.70704-.70703 3.5859-3.5859.70703-.70703 1.793-1.793.70703-.70703.70704-.70703 1.6758-1.6758a100 100 0 0 0 -1.8887 -.93945zm-72.551 2.5508-.0645.0645-1.793 1.793-.70703.70703-3.5859 3.5859-.70703.70703-1.793 1.793-.70703.70703-.70703.70703-1.793 1.793-.70703.70703-3.5859 3.5859-.70703.70703-1.793 1.793-.70703.70703-.70703.70703-1.793 1.793-.70703.70703-3.5859 3.5859-.70703.70703-1.793 1.793-.70703.70703-.70703.70703-1.793 1.793-.70703.70703-3.5859 3.5859-.70703.70703-1.793 1.793-.70703.70703-.70703.70703-.77539.77539h2.8281l.0684-.0684.70704-.70703 1.793-1.793.70704-.70703 3.5859-3.5859.70703-.70703 1.793-1.793.70703-.70703.70704-.70703 1.793-1.793.70704-.70703 3.5859-3.5859.70703-.70703 1.793-1.793.70703-.70703.70704-.70703 1.793-1.793.70704-.70703 3.5859-3.5859.70703-.70703 1.793-1.793.70703-.70703.70704-.70703 1.793-1.793.70704-.70703 3.5859-3.5859.70703-.70703 1.7363-1.7363a33 33 0 0 1 -1.293 -1.5352zm78.873 1.127-.73047.73047-.70703.70703-3.5859 3.5859-.70703.70703-1.793 1.793-.70703.70703-.70703.70703-1.793 1.793-.70703.70703-3.5859 3.5859-.70703.70703-1.793 1.793-.70703.70703-.70703.70703-1.793 1.793-.70703.70703-3.5859 3.5859-.70703.70703-1.793 1.793-.70703.70703-.70703.70703-1.793 1.793-.70703.70703-3.5859 3.5859-.70703.70703-1.793 1.793-.70703.70703-.70703.70703-.77539.77539h2.8281l.0684-.0684.70704-.70703 1.793-1.793.70704-.70703 3.5859-3.5859.70703-.70703 1.793-1.793.70703-.70703.70704-.70703 1.793-1.793.70704-.70703 3.5859-3.5859.70703-.70703 1.793-1.793.70703-.70703.70704-.70703 1.793-1.793.70704-.70703 3.5859-3.5859.70703-.70703 1.793-1.793.70703-.70703.70704-.70703 1.793-1.793.70704-.70703 4.293-4.293 1.0664-1.0664a100 100 0 0 0 -1.75 -1.0781zm-110.09 2.916a100 100 0 0 0 -24.139 24.139l.61719-.61719 4.293-4.293 1.793-1.793.70703-.70703.70704-.70703 1.793-1.793.70704-.70703 4.293-4.293 1.793-1.793.70703-.70703.70704-.70703 1.793-1.793.70704-.70703 3.5215-3.5215zm36.104 1.0684-1.0391 1.0391-.70703.70703-1.793 1.793-.70703.70703-.70703.70703-1.793 1.793-.70703.70703-3.5859 3.5859-.70703.70703-1.793 1.793-.70703.70703-.70703.70703-1.793 1.793-.70703.70703-3.5859 3.5859-.70703.70703-1.793 1.793-.70703.70703-.70703.70703-1.793 1.793-.70703.70703-3.5859 3.5859-.70703.70703-1.793 1.793-.70703.70703-.70703.70703-.77539.77539h2.8281l.0684-.0684.70704-.70703 1.793-1.793.70704-.70703 3.5859-3.5859.70703-.70703 1.793-1.793.70703-.70703.70704-.70703 1.793-1.793.70704-.70703 3.5859-3.5859.70703-.70703 1.793-1.793.70703-.70703.70704-.70703 1.793-1.793.70704-.70703 3.5859-3.5859.70703-.70703 1.793-1.793.70703-.70703.70704-.70703 1.793-1.793.70704-.70703 1.2305-1.2305a33 33 0 0 1 -1.6055 -1.2227zm79.979.0215-1.0176 1.0176-.70703.70703-1.793 1.793-.70703.70703-.70703.70703-1.793 1.793-.70703.70703-3.5859 3.5859-.70703.70703-1.793 1.793-.70703.70703-.70703.70703-1.793 1.793-.70703.70703-3.5859 3.5859-.70703.70703-1.793 1.793-.70703.70703-.70703.70703-1.793 1.793-.70703.70703-3.5859 3.5859-.70703.70703-1.793 1.793-.70703.70703-.70703.70703-.77539.77539h2.8281l.0684-.0684.70704-.70703 1.793-1.793.70704-.70703 3.5859-3.5859.70703-.70703 1.793-1.793.70703-.70703.70704-.70703 1.793-1.793.70704-.70703 3.5859-3.5859.70703-.70703 1.793-1.793.70703-.70703.70704-.70703 1.793-1.793.70704-.70703 3.5859-3.5859.70703-.70703 1.793-1.793.70703-.70703.70704-.70703 1.793-1.793.70704-.70703 1.207-1.207a100 100 0 0 0 -1.6035 -1.2246zm-73.965 3.9648-.25977.25977-.70703.70703-1.793 1.793-.70703.70703-3.5859 3.5859-.70703.70703-1.793 1.793-.70703.70703-.70703.70703-1.793 1.793-.70703.70703-3.5859 3.5859-.70703.70703-1.793 1.793-.70703.70703-.70703.70703-1.793 1.793-.70703.70703-3.5859 3.5859-.70703.70703-1.793 1.793-.70703.70703-.70703.70703-.77539.77539h2.8281l.0684-.0684.70704-.70703 1.793-1.793.70704-.70703 3.5859-3.5859.70703-.70703 1.793-1.793.70703-.70703.70704-.70703 1.793-1.793.70704-.70703 3.5859-3.5859.70703-.70703 1.793-1.793.70703-.70703.70704-.70703 1.793-1.793.70704-.70703 3.5859-3.5859.70703-.70703 1.793-1.793.70703-.70703.70704-.70703.043-.043a33 33 0 0 1 -1.9043 -.92383zm79.629.3711-.5957.5957-1.793 1.793-.70703.70703-3.5859 3.5859-.70703.70703-1.793 1.793-.70703.70703-.70703.70703-1.793 1.793-.70703.70703-3.5859 3.5859-.70703.70703-1.793 1.793-.70703.70703-.70703.70703-1.793 1.793-.70703.70703-3.5859 3.5859-.70703.70703-1.793 1.793-.70703.70703-.70703.70703-.77539.77539h2.8281l.0684-.0684.70704-.70703 1.793-1.793.70704-.70703 3.5859-3.5859.70703-.70703 1.793-1.793.70703-.70703.70704-.70703 1.793-1.793.70704-.70703 4.293-4.293 1.793-1.793.70703-.70703.70704-.70703 1.793-1.793.70704-.70703 4.293-4.293 1.793-1.793.66211-.66211a100 100 0 0 0 -1.4805 -1.3476zm-72.361 2.3613-.0274.0274-.70703.70703-3.5859 3.5859-.70703.70703-1.793 1.793-.70703.70703-.70703.70703-1.793 1.793-.70703.70703-3.5859 3.5859-.70703.70703-1.793 1.793-.70703.70703-.70703.70703-1.793 1.793-.70703.70703-3.5859 3.5859-.70703.70703-1.793 1.793-.70703.70703-.70703.70703-.77539.77539h2.8281l.0684-.0684.70704-.70703 1.793-1.793.70704-.70703 3.5859-3.5859.70703-.70703 1.793-1.793.70703-.70703.70704-.70703 1.793-1.793.70704-.70703 3.5859-3.5859.70703-.70703 1.793-1.793.70703-.70703.70704-.70703 1.793-1.793.70704-.70703 3.5859-3.5859.70703-.70703.94532-.94531a33 33 0 0 1 -2.332 -.4961zm12.096.73243a33 33 0 0 1 -3.0781 .25l-3.3379 3.3379-.70703.70703-1.793 1.793-.70703.70703-.70703.70703-1.793 1.793-.70703.70703-3.5859 3.5859-.70703.70703-1.793 1.793-.70703.70703-.70703.70703-1.793 1.793-.70703.70703-3.5859 3.5859-.70703.70703-1.793 1.793-.70703.70703-.70703.70703-.77539.77539h2.8281l.0684-.0684.70704-.70703 1.793-1.793.70704-.70703 3.5859-3.5859.70703-.70703 1.793-1.793.70703-.70703.70704-.70703 1.793-1.793.70704-.70703 3.5859-3.5859.70703-.70703 1.793-1.793.70703-.70703.70704-.70703 1.793-1.793.70704-.70703 3.5859-3.5859.70703-.70703.70899-.70898zm65.447 1.7246-1.8633 1.8633-.70703.70703-1.793 1.793-.70703.70703-.70703.70703-1.793 1.793-.70703.70703-3.5859 3.5859-.70703.70703-1.793 1.793-.70703.70703-.70703.70703-1.793 1.793-.70703.70703-3.5859 3.5859-.70703.70703-1.793 1.793-.70703.70703-.70703.70703-.77539.77539h2.8281l.0684-.0684.70704-.70703 1.793-1.793.70704-.70703 4.293-4.293 1.793-1.793.70703-.70703.70704-.70703 1.793-1.793.70704-.70703 3.5859-3.5859.70703-.70703 1.793-1.793.70703-.70703.70704-.70703 1.793-1.793.70704-.70703 1.9082-1.9082a100 100 0 0 0 -1.459 -1.3691zm4.8867 5.1133-.66406.66406-1.793 1.793-.70703.70703-3.5859 3.5859-.70703.70703-1.793 1.793-.70703.70703-.70703.70703-1.793 1.793-.70703.70703-3.5859 3.5859-.70703.70703-1.793 1.793-.70703.70703-.70703.70703-.77539.77539h2.8281l.0684-.0684.70704-.70703 1.793-1.793.70704-.70703 4.293-4.293 1.793-1.793.70703-.70703.70704-.70703 1.793-1.793.70704-.70703 3.5859-3.5859.70703-.70703 1.793-1.793.56641-.5664a100 100 0 0 0 -1.3164 -1.5117zm4.5898 5.4102-1.3398 1.3398-.70703.70703-1.793 1.793-.70703.70703-.70703.70703-1.793 1.793-.70703.70703-3.5859 3.5859-.70703.70703-1.793 1.793-.70703.70703-.70703.70703-.77539.77539h2.8281l.0684-.0684.70704-.70703 1.793-1.793.70704-.70703 4.293-4.293 1.793-1.793.70703-.70703.70704-.70703 1.793-1.793.70704-.70703 1.0996-1.0996a100 100 0 0 0 -1.1738 -1.6543zm4.1523 5.8477-1.1992 1.1992-.70703.70703-3.5859 3.5859-.70703.70703-2.5 2.5-1.4824 1.4824h2.8281l.0684-.0684 2.5-2.5.70704-.70703 3.5859-3.5859.70703-.70703.94532-.94531a100 100 0 0 0 -1.1602 -1.668zm3.7617 6.2383-2.4609 2.4609-.70703.70703-.77539.77539h2.8281l.0684-.0684 2.0723-2.0723a100 100 0 0 0 -1.0254 -1.8027z"/>
  
  <text style="word-spacing:0px;letter-spacing:0px" font-size="40px" line-height="125%" y="110.67076" x="46.867695" font-family="FontAwesome" xml:space="preserve" fill="#000000"><tspan y="110.67076" x="46.867695"/></text>
 </g>
 <g stroke="#000" stroke-width="0.5" fill-rule="evenodd">
  <path d="m0.25 756.62h511.5v2.4946h-511.5z" transform="translate(0 -540.36)"/>
  <path d="m0.25 833.62h511.5v2.4946h-424.78-86.724z" transform="translate(0 -540.36)"/>
 </g>
 <g>
  <path d="m255.5 109.47a146.5 146.76 0 0 0 -140.84 106.54h7.4707a139.25 139.5 0 0 1 133.22 -99.01 139.25 139.5 0 0 1 133.12 99.01h7.7871a146.5 146.76 0 0 0 -140.76 -106.54zm-140.88 186.53a146.5 146.76 0 0 0 140.88 107 146.5 146.76 0 0 0 140.99 -107h-7.6758a139.25 139.5 0 0 1 -133.46 100 139.25 139.5 0 0 1 -133.45 -100h-7.2754z" fill-rule="evenodd" stroke-width="0"/>
 </g>
 <g>
  <path d="m228.01 149.76a110 110 0 0 0 -74.47 66.24h5.584a105.02 105.02 0 0 1 69.39 -60.81 28 28 0 0 1 -.51 -5.19 28 28 0 0 1 .0117 -.23828zm55.98.0273a28 28 0 0 1 .01 .21 28 28 0 0 1 -.52 5.29 105.02 105.02 0 0 1 69.31 60.71h5.5605a110 110 0 0 0 -74.36 -66.21zm-130.34 146.21a110 110 0 0 0 102.35 70 110 110 0 0 0 102.46 -70h-5.2188a105.02 105.02 0 0 1 -97.24 65.52 105.02 105.02 0 0 1 -97.24 -65.52h-5.1133z" fill-rule="evenodd" stroke="#000" stroke-width="1px"/>
 </g>
 <g>
  <path d="m255.96 121.99a28 28 0 0 0 -28 28 28 28 0 0 0 28 28 28 28 0 0 0 28 -28 28 28 0 0 0 -28 -28zm0 2.498a25.5 25.5 0 0 1 25.5 25.5 25.5 25.5 0 0 1 -25.5 25.5 25.5 25.5 0 0 1 -25.5 -25.5 25.5 25.5 0 0 1 25.5 -25.5z"/>
  <path d="m250.41 135.33q-.9375.0977-1.7383.50782-.80078.41015-1.4062 1.0547-.60547.625-.95703 1.4648-.33203.82031-.33203 1.7188 0 .64453.0781 1.1914.0977.54688.19532 1.0547.0977.50781.17578.9961.0977.48828.0977 1.0156 0 .78125-.33203 1.582-.3125.80078-.8789 1.543-.54688.74219-1.3281 1.3867-.78125.64453-1.6797 1.0938.89844.41016 1.6602 1.0547.78125.625 1.3477 1.4062.5664.76172.8789 1.6211.33203.85938.33203 1.7188 0 .50781-.0977 1.0156-.0781.50781-.17578 1.0352-.0977.52735-.19532 1.0742-.0781.52734-.0781 1.0938 0 .97656.33203 1.8359.35156.85937.95703 1.5039.60547.66407 1.4062 1.0742.80078.42969 1.7383.50782v1.4844q-1.8359 0-3.4375-.58594-1.6016-.58593-2.8125-1.6016-1.1914-1.0156-1.8945-2.3828-.68359-1.3477-.68359-2.8906 0-.52734.0781-1.0352.0977-.50782.19531-1.0352.0977-.52734.17579-1.0742.0977-.54687.0977-1.1328 0-.76172-.3125-1.4453-.3125-.6836-.85937-1.1914-.54688-.50781-1.2891-.80078-.72265-.29297-1.5625-.29297v-1.7773q.83985 0 1.5625-.27344.74219-.29297 1.2891-.78125.54687-.50781.85937-1.1719.3125-.68359.3125-1.4453 0-.70312-.0977-1.25-.0781-.54687-.17579-1.0352-.0977-.48829-.19531-.95704-.0781-.48828-.0781-1.0742 0-1.5039.68359-2.832.70313-1.3281 1.8945-2.3047 1.2109-.9961 2.8125-1.5625 1.6016-.58594 3.4375-.58594v1.4844z"/>
  <path d="m261.61 133.85q1.8164 0 3.418.58594 1.6016.5664 2.793 1.5625 1.1914.97656 1.875 2.3047.70312 1.3281.70312 2.832 0 .52734-.0977 1.0547-.0781.50782-.17578 1.0352-.0976.52734-.19531 1.0742-.0781.54687-.0781 1.1523 0 .76172.3125 1.4453.33203.66407.8789 1.1719.54688.48828 1.2891.78125.74219.27344 1.5625.27344v1.7773q-.82031 0-1.5625.29297-.74218.29297-1.2891.80078-.54687.50781-.8789 1.1914-.3125.68359-.3125 1.4453 0 .54687.0781 1.0938.0977.52734.19531 1.0547.0977.52734.17578 1.0742.0977.52734.0977 1.0547 0 1.543-.70312 2.8906-.6836 1.3672-1.875 2.3828t-2.793 1.6016q-1.6016.58594-3.418.58594v-1.4844q.91797-.0781 1.7188-.50782.82031-.41015 1.4258-1.0742.60547-.64453.95703-1.5039.35156-.85938.35156-1.8359 0-.52734-.0976-1.0352-.0781-.52734-.19532-1.0547-.0976-.52735-.19531-1.0547-.0781-.52734-.0781-1.0742 0-.85937.3125-1.7188.33203-.85937.89843-1.6211.56641-.78125 1.3281-1.4062.76172-.64453 1.6406-1.0547-.8789-.44922-1.6602-1.0938-.76172-.64453-1.3281-1.3867-.54687-.74219-.8789-1.543-.3125-.80078-.3125-1.582 0-.50781.0781-1.0156.0977-.50782.19531-1.0352.11719-.52734.19532-1.0742.0976-.54687.0976-1.1328 0-.89844-.35156-1.7188-.35156-.83985-.95703-1.4648-.60547-.64453-1.4258-1.0547-.80078-.41016-1.7188-.50782v-1.4844z"/>
 </g>
 <g>
   <path d="m256.75 75.764c-.40-.002-.80.150-.96.455l-14.42 26.671c-.28.64.06 1.1.75 1.04l29.25.04c.69.06 1.06-.38.79-1.01l-14.45-26.735c-.17-.305-.56-.460-.96-.461zm-37.24 3.881c-.29-.036-.55.166-.68.580l-8.9 29.175c-.14.68.29 1.06.95.85l28.64-6.04c.68-.08.92-.60.52-1.17l-20.01-23.071c-.17-.196-.35-.303-.52-.324zm74.47.103c-.17.021-.36.128-.53.324l-20 23.028c-.41.56-.17 1.08.52 1.16l28.62 6.14c.66.21 1.09-.17.95-.85l-8.89-29.224c-.12-.414-.38-.613-.67-.578zm-109.82 11.338c-.55-.004-1.2.412-1.24.930l-2.4 30.284c.01.69.52.94 1.13.61l26.74-11.86c.65-.23.81-.78.31-1.26l-24.04-18.548c-.14-.106-.31-.155-.50-.156zm145.13.197c-.18 0-.36.047-.50.153l-23.97 18.524c-.52.46-.40 1.02.26 1.25l26.71 11.96c.60.34 1.1.07 1.11-.62l-2.37-30.329c-.04-.518-.69-.938-1.24-.938zm-177.91 18.567c-.39 0-.62.32-.56.83l3.66 30.34c.15.68.69.85 1.21.39l23.7-17.18c.60-.35.61-.92.01-1.28l-27.59-12.99c-.15-.07-.30-.11-.43-.11zm210.64.29c-.13 0-.28.04-.43.11l-27.57 12.95c-.59.35-.58.92.02 1.27l23.63 17.26c.52.46 1.07.29 1.22-.38l3.69-30.38c.06-.52-.17-.83-.56-.83zm-238.24 24.54c-.61.07-1.23.86-1.03 1.43l10.12 28.67c.29.62.86.65 1.28.09l19.6-21.72c.50-.47.39-1.03-.27-1.24l-29.45-7.22c-.08-.02-.17-.03-.25-.01zm266.43.87c-.13-.03-.28-.02-.45.01l-29.88 6.68c-.66.21-.77.78-.26 1.25l19.53 21.8c.40.56.97.51 1.27-.11l10.15-28.7c.18-.49.01-.84-.36-.93zm-288.58 29.64c-.69-.02-.97.46-.62 1.06l15.7 26.22c.41.56.98.49 1.26-.14l14.65-25.33c.40-.57.18-1.09-.50-1.17l-30.49-.64zm309.99.43l-30.45.60c-.68.08-.91.61-.50 1.17l14.56 25.39c.29.63.85.70 1.26.14l15.74-26.24c.36-.60.08-1.08-.61-1.06zm-295.22 28.07c-.07-.01-.15-.01-.24 0l-30.027 5.97c-.679.14-.846.67-.371 1.17l14.308 15.17h9.92l6.92-21.27c.24-.56.01-.99-.51-1.04zm280.39.45c-.52.05-.74.48-.50 1.04l6.69 20.82h10.51l13.9-14.7c.47-.50.30-1.03-.37-1.17l-29.98-5.99h-.25zm-297.57 101.86l-13.438 14.38c-.472.51-.301 1.03.379 1.17l29.976 5.8c.69.07 1.02-.40.74-1.04l-6.6-20.31h-11.057zm303.44 0l-6.37 19.82c-.28.64.05 1.11.74 1.04l29.99-5.99c.67-.13.84-.66.37-1.17l-12.95-13.7h-11.78zm-6.84 21.71c-.23.02-.45.19-.59.51l-14.56 25.39c-.41.56-.19 1.08.50 1.17l30.45.61c.69.01.97-.47.61-1.06l-15.73-26.25c-.21-.28-.45-.40-.68-.37zm-278.47.47c-.23-.03-.48.08-.69.36l-15.9 25.83c-.37.58.26 1.65.95 1.64l30.41-.81c.69-.08.91-.61.50-1.17l-14.67-25.32c-.15-.32-.36-.50-.60-.53zm262.47 27.14c-.23-.02-.47.11-.67.39l-19.53 21.8c-.51.47-.40 1.03.26 1.25l29.88 6.68c.67.15 1.04-.27.81-.92l-10.15-28.7c-.15-.31-.37-.48-.60-.50zm-246.35.42c-.23.02-.44.19-.59.51l-10.08 28.69c-.22.66.59 1.58 1.27 1.41l29.45-7.22c.66-.23.74-.80.23-1.27l-19.6-21.73c-.20-.28-.45-.41-.68-.39zm224.78 23.27c-.18 0-.38.09-.58.26l-23.63 17.26c-.60.35-.61.92-.02 1.27l27.57 12.95c.62.29 1.07-.03.99-.72l-3.69-30.37c-.09-.43-.34-.65-.64-.65zm-203.12.34c-.30-.01-.55.22-.64.64l-3.78 30.26c-.09.68.36 1.01.99.72l27.69-12.9c.60-.35.59-.92-.01-1.27l-23.67-17.2c-.20-.17-.40-.25-.58-.25zm177.08 18.34c-.13.01-.27.06-.42.15l-26.71 11.95c-.66.23-.78.79-.27 1.25l23.98 18.53c.55.42 1.68-.10 1.74-.79l2.38-30.33c-.01-.52-.30-.80-.70-.76zm-150.99.28c-.39-.03-.67.25-.67.77l2.79 30.48c.06.69.57.91 1.12.49l24.22-18.47c.51-.48.37-1.03-.29-1.25l-26.74-11.88c-.15-.09-.30-.13-.43-.14zm121.6 12.58c-.07.01-.15.03-.23.05l-28.62 6.14c-.69.08-.93.60-.53 1.16l20.01 23.03c.45.52 1 .41 1.2-.26l8.89-29.22c.10-.51-.11-.85-.50-.90-.07-.01-.14-.01-.22 0zm-92.4.19c-.39.05-.61.38-.51.89l8.78 29.15c.20.66.74.78 1.2.26l20.15-23.07c.40-.56.16-1.08-.53-1.16l-28.64-6.01c-.17-.06-.32-.08-.45-.06zm60.95 6.29l-29.25.05c-.69-.07-1.03.39-.75 1.03l14.41 26.67c.33.61 1.59.60 1.92 0l14.46-26.73c.27-.64-.10-1.08-.79-1.02z"/>
  </g>
 
</svg>